<svg width="22" height="22" viewBox="0 0 16 16" fill="none" xmlns="http://www.w3.org/2000/svg">
<path fill-rule="evenodd" clip-rule="evenodd" d="M9.31671 2.5454C8.58951 1.8182 7.41049 1.8182 6.68329 2.5454L2.5454 6.68329C1.8182 7.41049 1.8182 8.58951 2.5454 9.31671L6.68329 13.4546C7.41049 14.1818 8.58951 14.1818 9.31671 13.4546L13.4546 9.31671C14.1818 8.58951 14.1818 7.41049 13.4546 6.68329L9.31671 2.5454ZM7.12396 5.207L7.40328 8.5588H8.58826L8.85911 5.207H7.12396ZM7.04778 9.94692C7.04778 10.2178 7.13807 10.4435 7.31864 10.624C7.49921 10.8046 7.73056 10.8949 8.0127 10.8949C8.28355 10.8949 8.50644 10.8046 8.68136 10.624C8.86193 10.4435 8.95222 10.2178 8.95222 9.94692C8.95222 9.67607 8.86193 9.45035 8.68136 9.26979C8.50644 9.08922 8.28355 8.99893 8.0127 8.99893C7.73056 8.99893 7.49921 9.08922 7.31864 9.26979C7.13807 9.45035 7.04778 9.67607 7.04778 9.94692Z" fill="white"/>
</svg>
