<svg width="22" height="22" viewBox="0 0 22 22" fill="none" xmlns="http://www.w3.org/2000/svg">
<path fill-rule="evenodd" clip-rule="evenodd" d="M11 2.75C6.44365 2.75 2.75 6.44365 2.75 11C2.75 15.5563 6.44365 19.25 11 19.25C15.5563 19.25 19.25 15.5563 19.25 11C19.25 6.44365 15.5563 2.75 11 2.75ZM9.98929 6.90803C10.0436 6.77874 10.1195 6.6596 10.2136 6.55569L10.2225 6.54654C10.3266 6.44652 10.4494 6.36799 10.5838 6.31545C10.8507 6.20595 11.1499 6.20595 11.4168 6.31545C11.5512 6.36799 11.674 6.44652 11.7781 6.54654L11.784 6.55247C11.9834 6.76221 12.0963 7.03964 12.1003 7.32919L12.1003 7.33264C12.0994 7.51319 12.0543 7.69078 11.969 7.84981C11.8836 8.00884 11.7606 8.14448 11.6107 8.24475C11.4608 8.34502 11.2886 8.40684 11.1092 8.42473C10.9298 8.44262 10.7488 8.41603 10.5821 8.34732L10.5811 8.3469C10.4506 8.29221 10.3305 8.21552 10.2259 8.12017L10.2191 8.11359C10.1172 8.0105 10.0366 7.88827 9.98188 7.75393C9.92754 7.62047 9.89983 7.47764 9.90029 7.33354C9.89697 7.18674 9.92742 7.04114 9.98929 6.90803ZM10.9084 9.89999L10.9184 9.90005C10.9456 9.89802 10.9729 9.89699 11.0003 9.89699C11.2923 9.89699 11.5721 10.0133 11.7784 10.2203C11.9846 10.4272 12.1003 10.7076 12.1003 11V14.3057C12.4619 14.3509 12.7417 14.6594 12.7417 15.0333C12.7417 15.4383 12.4134 15.7666 12.0084 15.7666H11.0917C11.0779 15.7666 11.0643 15.7663 11.0507 15.7655C11.034 15.7663 11.0172 15.7667 11.0003 15.7667C10.7084 15.7667 10.4286 15.6503 10.2223 15.4434C10.0161 15.2365 9.90034 14.956 9.90034 14.6637V11.361C9.53847 11.316 9.25842 11.0074 9.25842 10.6333C9.25842 10.2283 9.58675 9.89999 9.99176 9.89999H10.9084Z" fill="white"/>
</svg>
